<svg id="only_logo" xmlns="http://www.w3.org/2000/svg" viewBox="0 0 286 108"><defs><style>.cls-1{fill:#06aed5;}.cls-2{fill:#fff;}.cls-3{fill:#414141;}</style></defs><title>logo_normal</title><g id="Logo_fin" data-name="Logo fin"><path class="cls-1" d="M142,0H278.07A7.93,7.93,0,0,1,286,7.93v92.14a7.93,7.93,0,0,1-7.93,7.93H142a0,0,0,0,1,0,0V0A0,0,0,0,1,142,0Z"/><path class="cls-2" d="M7.93,0H142a0,0,0,0,1,0,0V108a0,0,0,0,1,0,0H7.93A7.93,7.93,0,0,1,0,100.07V7.93A7.93,7.93,0,0,1,7.93,0Z"/><path class="cls-3" d="M83.53,89.41l35.89.15L109,99.16l-27.53.07Zm-1.7,56.64c-1.28-3.25-1.68-5.65-1.68-10.69V75.82l10.92.09-.5,56.71c0,1.41-.12,5.09,1,7.35.77,1.51,1.18,4,5.8,4.4l20.35.23-9.13,9.4-14.83-.16C88.77,153.81,83.23,149.67,81.83,146.05Z" transform="translate(-14 -66.54)"/><path class="cls-1" d="M152.93,108.69c0-8.19-.34-18.19-11.62-18.76H121.4l-9.89,9.68,21.43-.06c9.37,0,10.52,5.87,10.52,14.06l.13,18.57c0,8.19-2.48,12.61-10.11,12.61l-13.48.05-9,9.39,21.82.2h3.47c4.56.19,9.19-.68,12.23,2.82a20.43,20.43,0,0,1,2.14,3c.55.83,2.17.08,2.17-.92l-.05-22.18v-1.47Z" transform="translate(-14 -66.54)"/><path class="cls-3" d="M163.44,93h10.31v62.49H163.44Z" transform="translate(-14 -66.54)"/><path class="cls-3" d="M183.3,93.37,193.78,93v29.77h.27L212.56,93l9.89.16-20.3,32.66,20.46,30.6-10.51-.23-18-26.14h-.27v26.31h-10Z" transform="translate(-14 -66.54)"/><path class="cls-3" d="M162.74,165.81l-.16-.68h-.06a2.91,2.91,0,0,1-2.3.88,2.56,2.56,0,0,1-2.74-2.37.66.66,0,0,1,0-.14c0-2.13,1.89-3.12,4.86-3.12h0c0-.29-.19-.64-1.38-.64a5.3,5.3,0,0,0-2.37.63l-.54-1.91a7.5,7.5,0,0,1,3.45-.74c2.7,0,3.84,1.37,3.84,3.5v2.67a12.15,12.15,0,0,0,.13,2Zm-.31-3.59c-1.33,0-2,.34-2,1,0,.45.3.71.86.71a1.19,1.19,0,0,0,1.08-.82,3.23,3.23,0,0,0,0-.44Z" transform="translate(-14 -66.54)"/><path class="cls-3" d="M167.69,160.62c0-1.13,0-2.05-.06-2.76h2.5l.12,1h.06a2.83,2.83,0,0,1,2.46-1.21A2.35,2.35,0,0,1,175,159h0a3.48,3.48,0,0,1,1.16-1,3.19,3.19,0,0,1,1.49-.34c1.74,0,2.85,1.22,2.85,3.55v4.59h-2.9v-4.14c0-1-.35-1.58-1-1.58a1,1,0,0,0-1,.73,2.49,2.49,0,0,0-.08.61v4.38h-2.91v-4.14c0-1-.34-1.58-1-1.58a1,1,0,0,0-1,.71,1.52,1.52,0,0,0-.07.6v4.41h-2.91Z" transform="translate(-14 -66.54)"/><path class="cls-3" d="M185.34,162.85c.11.6,1.12.92,2.16.92a7.43,7.43,0,0,0,2.34-.32l.39,2a8.27,8.27,0,0,1-3.15.55c-3,0-4.61-1.61-4.61-4.13a4.17,4.17,0,0,1,4.12-4.21h.21c2.8,0,3.87,2.11,3.87,4.13a4.79,4.79,0,0,1-.11,1Zm2.54-2a1.19,1.19,0,0,0-1.19-1.19h0a1.34,1.34,0,0,0-1.36,1.19Z" transform="translate(-14 -66.54)"/><path class="cls-3" d="M192.48,160.59c0-1.4,0-2.11-.06-2.73H195l.1,1.54h.06a2.42,2.42,0,0,1,2.29-1.73,2.32,2.32,0,0,1,.59.05v2.82a3.57,3.57,0,0,0-.8-.09c-1,0-1.59.43-1.71,1v4.33h-3Z" transform="translate(-14 -66.54)"/><path class="cls-3" d="M202.83,155.65a1.43,1.43,0,0,1-1.44,1.41h-.14a1.41,1.41,0,1,1,1.58-1.4Zm-3.08,10.16v-7.95h3v7.95Z" transform="translate(-14 -66.54)"/><path class="cls-3" d="M211.62,165.63a6.27,6.27,0,0,1-2.42.38c-2.79,0-4.53-1.61-4.53-4.11,0-2.18,1.53-4.23,4.87-4.23a6.65,6.65,0,0,1,2,.29l-.44,2.21a3.57,3.57,0,0,0-1.41-.23,1.81,1.81,0,0,0-2,1.63,1.62,1.62,0,0,0,0,.22,1.85,1.85,0,0,0,1.82,1.88h.23a3.91,3.91,0,0,0,1.44-.22Z" transform="translate(-14 -66.54)"/><path class="cls-3" d="M218.21,165.81l-.16-.68H218a3,3,0,0,1-2.31.87,2.56,2.56,0,0,1-2.74-2.37v-.14c0-2.13,1.88-3.12,4.85-3.12h0c0-.29-.19-.64-1.37-.64a5.56,5.56,0,0,0-2.39.63l-.52-1.91a7.44,7.44,0,0,1,3.44-.74c2.7,0,3.85,1.37,3.85,3.5v2.67a10.29,10.29,0,0,0,.13,2Zm-.32-3.59c-1.33,0-2,.34-2,1,0,.45.31.71.86.71a1.17,1.17,0,0,0,1.08-.82,1.62,1.62,0,0,0,0-.44Z" transform="translate(-14 -66.54)"/><path class="cls-3" d="M223.25,163.27a5.69,5.69,0,0,0,2.41.67c.66,0,.89-.13.89-.41s-.15-.39-1.06-.63c-1.84-.48-2.57-1.45-2.55-2.47,0-1.62,1.44-2.76,3.61-2.76a6.66,6.66,0,0,1,2.57.48l-.49,2a5,5,0,0,0-2-.49c-.49,0-.81.1-.81.42s.27.42,1.28.7c1.64.45,2.33,1.24,2.34,2.5,0,1.47-1.17,2.69-3.8,2.69a6.85,6.85,0,0,1-3-.6Z" transform="translate(-14 -66.54)"/></g></svg>