<svg id="small_logo" xmlns="http://www.w3.org/2000/svg" viewBox="0 0 153 153"><defs><style>.cls-1{fill:#fff;}.cls-2{fill:#414141;}.cls-3{fill:#06aed5;}</style></defs><title>logo_small_icon</title><g id="Logo_fin" data-name="Logo fin"><rect class="cls-1" width="153" height="153" rx="28.94"/><path class="cls-2" d="M104,76.17l51.1.21L140.23,90.05l-39.19.1Zm-2.43,80.64c-1.81-4.62-2.39-8-2.39-15.22V56.82L114.7,57,114,137.69c0,2-.17,7.25,1.41,10.47,1.1,2.15,1.68,5.69,8.25,6.26l29,.33-13,13.38-21.12-.22C111.43,167.86,103.54,162,101.54,156.81Z" transform="translate(-72 -40.54)"/><path class="cls-3" d="M202.78,103.62c0-11.66-.5-25.9-16.55-26.71H157.88L143.8,90.69l30.52-.08c13.33,0,15,8.35,15,20l.18,26.44c0,11.66-3.52,18-14.39,18l-19.2.07-12.77,13.37,31.08.29h4.93c6.49.27,13.1-1,17.42,4a29,29,0,0,1,3,4.27c.79,1.18,3.1.12,3.1-1.31l-.07-31.58v-2.09Z" transform="translate(-72 -40.54)"/></g></svg>